STARTFONT 2.1
FONT -Bitstream-Dutch 801-Medium-R-Normal--17-120-100-100-P-130-DEC-DECmath_Symbol
SIZE 12 100 100
FONTBOUNDINGBOX 22 30 -4 -17

STARTPROPERTIES 26
FONTNAME_REGISTRY ""
FAMILY_NAME "Dutch 801"
FOUNDRY "Bitstream"
WEIGHT_NAME "Medium"
SETWIDTH_NAME "Normal"
SLANT "R"
ADD_STYLE_NAME ""
PIXEL_SIZE 17
POINT_SIZE 120
RESOLUTION_X 100
RESOLUTION_Y 100
SPACING "P"
AVERAGE_WIDTH 130
CHARSET_REGISTRY "DEC"
CHARSET_ENCODING "DECmath_Symbol"
CAP_HEIGHT 12
X_HEIGHT 0
CHARSET_COLLECTIONS "DEC-DECmath_Symbol"
FULL_NAME "Dutch 801 Roman DECmath_Symbol"
COPYRIGHT "Copyright 1989 by Bitstream, Inc. and Digital Equipment Corp. All rights reserved."
NOTICE "Dutch 801 is a registered trademark of Bitstream, Inc."
WEIGHT 10
QUAD_WIDTH 10
DEFAULT_CHAR 32
FONT_DESCENT 17
FONT_ASCENT 13
ENDPROPERTIES

CHARS 128

STARTCHAR arrowleft
ENCODING 32
SWIDTH 1000 0
DWIDTH 17 0
BBX 15 5 1 3
BITMAP
1800
6000
FFFE
6000
1800
ENDCHAR

STARTCHAR arrowright
ENCODING 33
SWIDTH 1000 0
DWIDTH 17 0
BBX 15 5 1 3
BITMAP
0030
000C
FFFE
000C
0030
ENDCHAR

STARTCHAR arrowup
ENCODING 34
SWIDTH 500 0
DWIDTH 8 0
BBX 5 15 2 -3
BITMAP
20
70
70
A8
A8
20
20
20
20
20
20
20
20
20
20
ENDCHAR

STARTCHAR arrowdown
ENCODING 35
SWIDTH 500 0
DWIDTH 8 0
BBX 5 15 2 -3
BITMAP
20
20
20
20
20
20
20
20
20
20
A8
A8
70
70
20
ENDCHAR

STARTCHAR arrowboth
ENCODING 36
SWIDTH 1000 0
DWIDTH 17 0
BBX 15 5 1 3
BITMAP
1830
600C
FFFE
600C
1830
ENDCHAR

STARTCHAR arrownortheast
ENCODING 37
SWIDTH 1000 0
DWIDTH 17 0
BBX 15 15 1 -3
BITMAP
0006
003E
000C
0014
0024
0040
0080
0100
0200
0400
0800
1000
2000
4000
8000
ENDCHAR

STARTCHAR arrowsoutheast
ENCODING 38
SWIDTH 1000 0
DWIDTH 17 0
BBX 15 15 1 -3
BITMAP
8000
4000
2000
1000
0800
0400
0200
0100
0080
0040
0024
0014
000C
003E
0006
ENDCHAR

STARTCHAR similarequal
ENCODING 39
SWIDTH 1000 0
DWIDTH 17 0
BBX 12 5 3 2
BITMAP
7C10
83E0
0000
0000
FFF0
ENDCHAR

STARTCHAR arrowdblleft
ENCODING 40
SWIDTH 1000 0
DWIDTH 17 0
BBX 16 7 1 2
BITMAP
1000
2000
7FFF
8000
7FFF
2000
1000
ENDCHAR

STARTCHAR arrowdblright
ENCODING 41
SWIDTH 1000 0
DWIDTH 17 0
BBX 16 7 1 2
BITMAP
0008
0004
FFFE
0001
FFFE
0004
0008
ENDCHAR

STARTCHAR arrowdblup
ENCODING 42
SWIDTH 500 0
DWIDTH 8 0
BBX 7 16 1 -4
BITMAP
10
28
6C
AA
28
28
28
28
28
28
28
28
28
28
28
28
ENDCHAR

STARTCHAR arrowdbldown
ENCODING 43
SWIDTH 500 0
DWIDTH 8 0
BBX 7 16 1 -4
BITMAP
28
28
28
28
28
28
28
28
28
28
28
28
AA
6C
28
10
ENDCHAR

STARTCHAR arrowdblboth
ENCODING 44
SWIDTH 1000 0
DWIDTH 17 0
BBX 16 7 1 2
BITMAP
1008
2004
7FFE
8001
7FFE
2004
1008
ENDCHAR

STARTCHAR arrownorthwest
ENCODING 45
SWIDTH 1000 0
DWIDTH 17 0
BBX 15 15 1 -3
BITMAP
C000
F800
6000
5000
4800
0400
0200
0100
0080
0040
0020
0010
0008
0004
0002
ENDCHAR

STARTCHAR arrowsouthwest
ENCODING 46
SWIDTH 1000 0
DWIDTH 17 0
BBX 15 15 1 -3
BITMAP
0002
0004
0008
0010
0020
0040
0080
0100
0200
0400
4800
5000
6000
F800
C000
ENDCHAR

STARTCHAR proportional
ENCODING 47
SWIDTH 1000 0
DWIDTH 17 0
BBX 9 6 4 3
BITMAP
7180
CA00
8400
8400
CA00
7180
ENDCHAR

STARTCHAR prime
ENCODING 48
SWIDTH 278 0
DWIDTH 5 0
BBX 3 8 1 3
BITMAP
60
60
60
40
C0
80
80
80
ENDCHAR

STARTCHAR infinity
ENCODING 49
SWIDTH 833 0
DWIDTH 14 0
BBX 11 6 2 3
BITMAP
71C0
CA60
8420
8420
CA60
71C0
ENDCHAR

STARTCHAR element
ENCODING 50
SWIDTH 1000 0
DWIDTH 17 0
BBX 11 11 3 0
BITMAP
1FE0
6000
4000
8000
8000
FFE0
8000
8000
4000
6000
1FE0
ENDCHAR

STARTCHAR suchthat
ENCODING 51
SWIDTH 1000 0
DWIDTH 17 0
BBX 11 11 3 0
BITMAP
FF00
00C0
0040
0020
0020
FFE0
0020
0020
0040
00C0
FF00
ENDCHAR

STARTCHAR trianglelgup
ENCODING 52
SWIDTH 1000 0
DWIDTH 17 0
BBX 13 13 2 0
BITMAP
0200
0200
0500
0500
0880
0880
1040
1040
2020
2020
4010
4010
FFF8
ENDCHAR

STARTCHAR trianglelgdown
ENCODING 53
SWIDTH 1000 0
DWIDTH 17 0
BBX 13 13 2 -3
BITMAP
FFF8
4010
4010
2020
2020
1040
1040
0880
0880
0500
0500
0200
0200
ENDCHAR

STARTCHAR slashnegate
ENCODING 54
SWIDTH 0 0
DWIDTH 8 0
BBX 7 17 1 -4
BITMAP
02
02
04
04
08
08
08
10
10
10
20
20
20
40
40
80
80
ENDCHAR

STARTCHAR mapsto
ENCODING 55
SWIDTH 0 0
DWIDTH 2 0
BBX 2 7 0 1
BITMAP
80
80
80
C0
80
80
80
ENDCHAR

STARTCHAR universal
ENCODING 56
SWIDTH 637 0
DWIDTH 11 0
BBX 11 12 0 0
BITMAP
C060
C060
60C0
7FC0
3F80
3180
3180
1B00
1B00
1B00
0E00
0E00
ENDCHAR

STARTCHAR existential
ENCODING 57
SWIDTH 639 0
DWIDTH 11 0
BBX 9 12 1 0
BITMAP
FF80
FF80
0180
0180
0180
7F80
7F80
0180
0180
0180
FF80
FF80
ENDCHAR

STARTCHAR logicalnot
ENCODING 58
SWIDTH 833 0
DWIDTH 14 0
BBX 10 4 2 3
BITMAP
FFC0
0040
0040
0040
ENDCHAR

STARTCHAR emptyset
ENCODING 59
SWIDTH 500 0
DWIDTH 8 0
BBX 7 14 1 -1
BITMAP
02
3A
6C
44
CE
CE
D6
D6
E6
E6
44
6C
B8
80
ENDCHAR

STARTCHAR Rfraktur
ENCODING 60
SWIDTH 794 0
DWIDTH 12 0
BBX 12 13 0 -1
BITMAP
7180
9AC0
8C60
4C60
2C30
2C60
ACC0
AFC0
4CC0
0CC0
4CD0
2CE0
1840
ENDCHAR

STARTCHAR Ifraktur
ENCODING 61
SWIDTH 699 0
DWIDTH 12 0
BBX 10 14 1 -1
BITMAP
3C00
5E40
4340
4180
4000
31C0
0100
0180
0180
00C0
70C0
B840
8C80
0700
ENDCHAR

STARTCHAR latticetop
ENCODING 62
SWIDTH 778 0
DWIDTH 13 0
BBX 11 13 1 -1
BITMAP
FFE0
0400
0400
0400
0400
0400
0400
0400
0400
0400
0400
0400
0400
ENDCHAR

STARTCHAR latticebot
ENCODING 63
SWIDTH 778 0
DWIDTH 13 0
BBX 11 13 1 -1
BITMAP
0400
0400
0400
0400
0400
0400
0400
0400
0400
0400
0400
0400
FFE0
ENDCHAR

STARTCHAR aleph
ENCODING 64
SWIDTH 602 0
DWIDTH 10 0
BBX 9 12 1 0
BITMAP
8200
C300
E180
7280
3600
5800
5C00
8E00
C700
C300
C180
C180
ENDCHAR

STARTCHAR Acursive
ENCODING 65
SWIDTH 630 0
DWIDTH 10 0
BBX 11 14 -3 -2
BITMAP
0060
00C0
00C0
01C0
0140
0240
02C0
07E0
04C0
4CC0
48E0
D0C0
E080
4000
ENDCHAR

STARTCHAR Bcursive
ENCODING 66
SWIDTH 613 0
DWIDTH 10 0
BBX 11 12 -1 0
BITMAP
0460
1CE0
2960
0A40
1C80
1900
3600
3300
2180
6980
4980
C700
ENDCHAR

STARTCHAR Ccursive
ENCODING 67
SWIDTH 546 0
DWIDTH 9 0
BBX 10 12 0 0
BITMAP
01C0
06C0
08C0
1080
3100
6200
6000
C100
C200
C600
FC00
7000
ENDCHAR

STARTCHAR Dcursive
ENCODING 68
SWIDTH 722 0
DWIDTH 12 0
BBX 13 13 -1 -1
BITMAP
03C0
0FF0
1A30
2218
6618
4418
0C18
0810
1830
10E0
7FC0
7F00
8000
ENDCHAR

STARTCHAR Ecursive
ENCODING 69
SWIDTH 535 0
DWIDTH 9 0
BBX 9 12 0 0
BITMAP
0300
0D80
1900
1100
1800
1E00
3C00
4000
C200
C600
FC00
7000
ENDCHAR

STARTCHAR Fcursive
ENCODING 70
SWIDTH 558 0
DWIDTH 9 0
BBX 9 13 1 -1
BITMAP
1C00
2F80
4300
4200
0600
0400
7E00
0C00
0800
5800
9800
B000
E000
ENDCHAR

STARTCHAR Gcursive
ENCODING 71
SWIDTH 595 0
DWIDTH 10 0
BBX 10 16 0 -4
BITMAP
01C0
06C0
0880
1080
3100
6000
6780
C300
C300
C600
EE00
7400
0C00
2800
3000
2000
ENDCHAR

STARTCHAR Hcursive
ENCODING 72
SWIDTH 722 0
DWIDTH 12 0
BBX 16 13 -4 -1
BITMAP
00C1
03C3
00C6
0186
018C
030C
07FE
0318
0618
0630
0C34
9838
7020
ENDCHAR

STARTCHAR Icursive
ENCODING 73
SWIDTH 431 0
DWIDTH 7 0
BBX 8 14 -1 -2
BITMAP
0F
16
26
24
04
0C
0C
08
18
58
90
F0
E0
40
ENDCHAR

STARTCHAR Jcursive
ENCODING 74
SWIDTH 475 0
DWIDTH 8 0
BBX 9 15 0 -3
BITMAP
0780
0D00
1B00
1200
3600
3600
0400
0C00
0C00
0800
5800
9800
D000
F000
6000
ENDCHAR

STARTCHAR Kcursive
ENCODING 75
SWIDTH 676 0
DWIDTH 11 0
BBX 12 13 -1 -1
BITMAP
0410
1C30
2860
18C0
1980
1300
1E00
3400
2E00
6600
6340
C380
0100
ENDCHAR

STARTCHAR Lcursive
ENCODING 76
SWIDTH 602 0
DWIDTH 10 0
BBX 12 14 -2 -2
BITMAP
0070
01B0
0320
0240
0600
0600
0C00
0C00
0800
1800
3820
6CC0
C780
0300
ENDCHAR

STARTCHAR Mcursive
ENCODING 77
SWIDTH 896 0
DWIDTH 15 0
BBX 17 14 -2 -2
BITMAP
00C080
03C180
00C180
01C300
01C700
02CB00
02CB00
04D300
04D200
48E600
48C600
D08700
F00400
400000
ENDCHAR

STARTCHAR Ncursive
ENCODING 78
SWIDTH 722 0
DWIDTH 12 0
BBX 14 14 -2 -2
BITMAP
030C
0F1C
0324
0384
0588
0588
0588
08D0
08D0
50E0
50C0
A040
C040
C000
ENDCHAR

STARTCHAR Ocursive
ENCODING 79
SWIDTH 671 0
DWIDTH 11 0
BBX 11 12 0 0
BITMAP
0380
07C0
14C0
2460
6060
4060
C040
C0C0
C080
6100
7E00
3800
ENDCHAR

STARTCHAR Pcursive
ENCODING 80
SWIDTH 593 0
DWIDTH 10 0
BBX 10 13 0 -1
BITMAP
08C0
3BC0
1AC0
1CC0
1880
3180
3100
3600
7800
6000
4000
F000
C000
ENDCHAR

STARTCHAR Qcursive
ENCODING 81
SWIDTH 676 0
DWIDTH 11 0
BBX 12 14 -1 -2
BITMAP
01E0
0670
0830
1830
1030
3020
3060
3140
3E40
1880
0100
7620
FCC0
0F00
ENDCHAR

STARTCHAR Rcursive
ENCODING 82
SWIDTH 662 0
DWIDTH 11 0
BBX 11 12 0 0
BITMAP
04E0
3DE0
0A60
1C40
18C0
1980
3700
3E00
6600
6340
C380
8100
ENDCHAR

STARTCHAR Scursive
ENCODING 83
SWIDTH 523 0
DWIDTH 9 0
BBX 9 12 0 0
BITMAP
0700
0F80
1180
3100
3000
3800
1C00
4E00
4600
C600
FC00
7000
ENDCHAR

STARTCHAR Tcursive
ENCODING 84
SWIDTH 650 0
DWIDTH 11 0
BBX 11 13 1 -1
BITMAP
38E0
FFC0
0300
0C00
1000
3000
2000
6000
6080
6100
7200
3C00
1800
ENDCHAR

STARTCHAR Ucursive
ENCODING 85
SWIDTH 699 0
DWIDTH 12 0
BBX 11 12 1 0
BITMAP
0820
3860
5840
30C0
30C0
6180
6180
4300
C700
CB40
D380
E300
ENDCHAR

STARTCHAR Vcursive
ENCODING 86
SWIDTH 569 0
DWIDTH 9 0
BBX 9 12 1 0
BITMAP
3080
7180
B180
3300
3200
2200
6400
6400
6800
6800
7000
6000
ENDCHAR

STARTCHAR Wcursive
ENCODING 87
SWIDTH 792 0
DWIDTH 13 0
BBX 13 12 1 0
BITMAP
3108
7318
B318
3330
3320
2620
6640
6E40
6A80
6E80
7700
6600
ENDCHAR

STARTCHAR Xcursive
ENCODING 88
SWIDTH 722 0
DWIDTH 12 0
BBX 13 13 -2 -1
BITMAP
0208
0E18
1738
0328
0340
0380
0300
0300
4588
4990
91A0
E1C0
C080
ENDCHAR

STARTCHAR Ycursive
ENCODING 89
SWIDTH 625 0
DWIDTH 10 0
BBX 11 16 0 -4
BITMAP
3060
E0C0
70C0
6180
6180
6300
6300
6600
6600
7C00
3400
2800
1800
5000
7000
6000
ENDCHAR

STARTCHAR Zcursive
ENCODING 90
SWIDTH 588 0
DWIDTH 10 0
BBX 12 13 -1 -1
BITMAP
0310
0FE0
18C0
0080
0100
0200
0400
0800
1000
2000
7880
DF00
0E00
ENDCHAR

STARTCHAR union
ENCODING 91
SWIDTH 1000 0
DWIDTH 17 0
BBX 11 11 3 0
BITMAP
8020
8020
8020
8020
8020
8020
8020
8020
4040
60C0
1F00
ENDCHAR

STARTCHAR intersection
ENCODING 92
SWIDTH 1000 0
DWIDTH 17 0
BBX 11 11 3 0
BITMAP
1F00
60C0
4040
8020
8020
8020
8020
8020
8020
8020
8020
ENDCHAR

STARTCHAR unionmultiset
ENCODING 93
SWIDTH 1000 0
DWIDTH 17 0
BBX 11 11 3 0
BITMAP
8020
8020
8020
8420
8420
9F20
8420
8420
4040
60C0
1F00
ENDCHAR

STARTCHAR logicaland
ENCODING 94
SWIDTH 1000 0
DWIDTH 17 0
BBX 13 13 2 -1
BITMAP
0200
0200
0500
0500
0880
0880
1040
1040
2020
2020
4010
4010
8008
ENDCHAR

STARTCHAR logicalor
ENCODING 95
SWIDTH 1000 0
DWIDTH 17 0
BBX 13 13 2 -1
BITMAP
8008
4010
4010
2020
2020
1040
1040
0880
0880
0500
0500
0200
0200
ENDCHAR

STARTCHAR turnstileleft
ENCODING 96
SWIDTH 611 0
DWIDTH 10 0
BBX 8 13 1 -1
BITMAP
80
80
80
80
80
80
FF
80
80
80
80
80
80
ENDCHAR

STARTCHAR turnstileright
ENCODING 97
SWIDTH 611 0
DWIDTH 10 0
BBX 8 13 1 -1
BITMAP
01
01
01
01
01
01
FF
01
01
01
01
01
01
ENDCHAR

STARTCHAR bracketleftbt
ENCODING 98
SWIDTH 528 0
DWIDTH 9 0
BBX 4 17 4 -4
BITMAP
80
80
80
80
80
80
80
80
80
80
80
80
80
80
80
80
F0
ENDCHAR

STARTCHAR bracketrightbt
ENCODING 99
SWIDTH 528 0
DWIDTH 9 0
BBX 4 17 1 -4
BITMAP
10
10
10
10
10
10
10
10
10
10
10
10
10
10
10
10
F0
ENDCHAR

STARTCHAR bracketlefttp
ENCODING 100
SWIDTH 528 0
DWIDTH 9 0
BBX 4 17 4 -4
BITMAP
F0
80
80
80
80
80
80
80
80
80
80
80
80
80
80
80
80
ENDCHAR

STARTCHAR bracketrighttp
ENCODING 101
SWIDTH 528 0
DWIDTH 9 0
BBX 4 17 1 -4
BITMAP
F0
10
10
10
10
10
10
10
10
10
10
10
10
10
10
10
10
ENDCHAR

STARTCHAR braceleft
ENCODING 102
SWIDTH 500 0
DWIDTH 8 0
BBX 5 17 2 -4
BITMAP
18
30
30
30
30
30
30
60
80
60
30
30
30
30
30
30
18
ENDCHAR

STARTCHAR braceright
ENCODING 103
SWIDTH 500 0
DWIDTH 8 0
BBX 5 17 1 -4
BITMAP
C0
60
60
60
60
60
60
30
08
30
60
60
60
60
60
60
C0
ENDCHAR

STARTCHAR angleleft
ENCODING 104
SWIDTH 333 0
DWIDTH 6 0
BBX 5 17 1 -4
BITMAP
08
08
10
10
20
20
40
40
80
40
40
20
20
10
10
08
08
ENDCHAR

STARTCHAR angleright
ENCODING 105
SWIDTH 333 0
DWIDTH 6 0
BBX 5 17 1 -4
BITMAP
80
80
40
40
20
20
10
10
08
10
10
20
20
40
40
80
80
ENDCHAR

STARTCHAR bar
ENCODING 106
SWIDTH 602 0
DWIDTH 10 0
BBX 1 17 5 -4
BITMAP
80
80
80
80
80
80
80
80
80
80
80
80
80
80
80
80
80
ENDCHAR

STARTCHAR bardbl
ENCODING 107
SWIDTH 1000 0
DWIDTH 17 0
BBX 4 17 7 -4
BITMAP
90
90
90
90
90
90
90
90
90
90
90
90
90
90
90
90
90
ENDCHAR

STARTCHAR arrowupdown
ENCODING 108
SWIDTH 500 0
DWIDTH 8 0
BBX 5 17 2 -4
BITMAP
20
70
70
A8
A8
20
20
20
20
20
20
20
A8
A8
70
70
20
ENDCHAR

STARTCHAR arrowdblupdown
ENCODING 109
SWIDTH 500 0
DWIDTH 8 0
BBX 7 17 1 -4
BITMAP
10
28
6C
AA
28
28
28
28
28
28
28
28
28
AA
6C
28
10
ENDCHAR

STARTCHAR backslash
ENCODING 110
SWIDTH 500 0
DWIDTH 8 0
BBX 7 17 1 -4
BITMAP
80
80
40
40
20
20
20
10
10
10
08
08
08
04
04
02
02
ENDCHAR

STARTCHAR wreathproduct
ENCODING 111
SWIDTH 278 0
DWIDTH 5 0
BBX 3 10 1 -1
BITMAP
C0
60
20
20
60
40
C0
80
C0
60
ENDCHAR

STARTCHAR radical
ENCODING 112
SWIDTH 1000 0
DWIDTH 17 0
BBX 15 17 2 -17
BITMAP
0002
0004
0004
0008
0008
0010
0010
0020
3020
3040
5840
9880
0C80
0D00
0700
0600
0200
ENDCHAR

STARTCHAR coproduct
ENCODING 113
SWIDTH 768 0
DWIDTH 13 0
BBX 13 11 0 0
BITMAP
FDF8
3060
3060
3060
3060
3060
3060
3060
3060
3060
FFF8
ENDCHAR

STARTCHAR gradient
ENCODING 114
SWIDTH 713 0
DWIDTH 12 0
BBX 12 11 0 0
BITMAP
FFF0
6020
6040
3040
3080
1880
1900
0D00
0E00
0600
0400
ENDCHAR

STARTCHAR integral
ENCODING 115
SWIDTH 274 0
DWIDTH 5 0
BBX 8 16 -1 -3
BITMAP
07
0B
08
18
18
18
18
18
18
18
18
18
10
10
D0
E0
ENDCHAR

STARTCHAR unionsqr
ENCODING 116
SWIDTH 1000 0
DWIDTH 17 0
BBX 11 11 3 0
BITMAP
8020
8020
8020
8020
8020
8020
8020
8020
8020
8020
FFE0
ENDCHAR

STARTCHAR intersectsqr
ENCODING 117
SWIDTH 1000 0
DWIDTH 17 0
BBX 11 11 3 0
BITMAP
FFE0
8020
8020
8020
8020
8020
8020
8020
8020
8020
8020
ENDCHAR

STARTCHAR reflsubsetsq
ENCODING 118
SWIDTH 1000 0
DWIDTH 17 0
BBX 11 13 3 -2
BITMAP
FFE0
8000
8000
8000
8000
8000
8000
8000
8000
8000
FFE0
0000
FFE0
ENDCHAR

STARTCHAR reflsupersetsq
ENCODING 119
SWIDTH 1000 0
DWIDTH 17 0
BBX 11 13 3 -2
BITMAP
FFE0
0020
0020
0020
0020
0020
0020
0020
0020
0020
FFE0
0000
FFE0
ENDCHAR

STARTCHAR section
ENCODING 120
SWIDTH 500 0
DWIDTH 8 0
BBX 6 15 1 -3
BITMAP
78
8C
84
C0
70
B8
8C
C4
74
38
0C
04
84
8C
78
ENDCHAR

STARTCHAR dagger
ENCODING 121
SWIDTH 500 0
DWIDTH 8 0
BBX 8 15 0 -3
BITMAP
18
18
18
FF
18
18
18
18
18
18
18
18
18
18
18
ENDCHAR

STARTCHAR daggerdbl
ENCODING 122
SWIDTH 500 0
DWIDTH 8 0
BBX 8 15 0 -3
BITMAP
18
18
18
FF
18
18
18
18
18
18
FF
18
18
18
18
ENDCHAR

STARTCHAR paragraph
ENCODING 123
SWIDTH 500 0
DWIDTH 8 0
BBX 7 15 0 -3
BITMAP
3E
74
F4
F4
F4
74
34
14
14
14
14
14
14
14
14
ENDCHAR

STARTCHAR clubsuit
ENCODING 124
SWIDTH 1150 0
DWIDTH 19 0
BBX 16 15 2 -2
BITMAP
03C0
07E0
07E0
07E0
07E0
7BDE
FDBF
FFFF
FFFF
FDBF
799E
0180
0180
03C0
07E0
ENDCHAR

STARTCHAR diamondsuit
ENCODING 125
SWIDTH 1148 0
DWIDTH 19 0
BBX 15 15 2 -2
BITMAP
0100
0280
0440
0820
1010
2008
4004
8002
4004
2008
1010
0820
0440
0280
0100
ENDCHAR

STARTCHAR heartsuit
ENCODING 126
SWIDTH 1147 0
DWIDTH 19 0
BBX 15 15 2 -2
BITMAP
3838
4444
8282
8102
8002
8002
4004
4004
2008
1010
0820
0440
0280
0100
0100
ENDCHAR

STARTCHAR spadesuit
ENCODING 127
SWIDTH 1148 0
DWIDTH 19 0
BBX 14 15 3 -2
BITMAP
0300
0300
0780
0FC0
1FE0
7FF8
7FF8
FFFC
FFFC
FFFC
7B78
3330
0300
0780
0FC0
ENDCHAR

STARTCHAR minus
ENCODING 160
SWIDTH 833 0
DWIDTH 14 0
BBX 10 1 2 5
BITMAP
FFC0
ENDCHAR

STARTCHAR dotmath
ENCODING 161
SWIDTH 572 0
DWIDTH 9 0
BBX 2 2 4 5
BITMAP
C0
C0
ENDCHAR

STARTCHAR multiply
ENCODING 162
SWIDTH 833 0
DWIDTH 14 0
BBX 9 9 3 1
BITMAP
8080
4100
2200
1400
0800
1400
2200
4100
8080
ENDCHAR

STARTCHAR asteriskmath
ENCODING 163
SWIDTH 1000 0
DWIDTH 17 0
BBX 5 7 6 2
BITMAP
20
A8
F8
20
F8
A8
20
ENDCHAR

STARTCHAR divide
ENCODING 164
SWIDTH 833 0
DWIDTH 14 0
BBX 10 9 2 1
BITMAP
0C00
0C00
0000
0000
FFC0
0000
0000
0C00
0C00
ENDCHAR

STARTCHAR diamondop
ENCODING 165
SWIDTH 500 0
DWIDTH 8 0
BBX 7 8 1 0
BITMAP
10
28
44
82
82
44
28
10
ENDCHAR

STARTCHAR plusminus
ENCODING 166
SWIDTH 833 0
DWIDTH 14 0
BBX 11 11 2 0
BITMAP
0400
0400
0400
0400
FFE0
0400
0400
0400
0400
0400
FFE0
ENDCHAR

STARTCHAR minusplus
ENCODING 167
SWIDTH 833 0
DWIDTH 14 0
BBX 11 10 2 0
BITMAP
FFE0
0400
0400
0400
0400
FFE0
0400
0400
0400
0400
ENDCHAR

STARTCHAR circleplus
ENCODING 168
SWIDTH 1000 0
DWIDTH 17 0
BBX 13 13 2 -1
BITMAP
0700
1AC0
2220
4210
4210
8208
FFF8
8208
4210
4210
2220
1AC0
0700
ENDCHAR

STARTCHAR circleminus
ENCODING 169
SWIDTH 1000 0
DWIDTH 17 0
BBX 13 13 2 -1
BITMAP
0700
18C0
2020
4010
4010
8008
FFF8
8008
4010
4010
2020
18C0
0700
ENDCHAR

STARTCHAR circlemultiply
ENCODING 170
SWIDTH 1000 0
DWIDTH 17 0
BBX 13 13 2 -1
BITMAP
0700
18C0
2020
5050
4890
8508
8208
8508
4890
5050
2020
18C0
0700
ENDCHAR

STARTCHAR circledivide
ENCODING 171
SWIDTH 1000 0
DWIDTH 17 0
BBX 13 13 2 -1
BITMAP
0700
18C0
2020
4050
4090
8108
8208
8408
4810
5010
2020
18C0
0700
ENDCHAR

STARTCHAR circledot
ENCODING 172
SWIDTH 1000 0
DWIDTH 17 0
BBX 13 13 2 -1
BITMAP
0700
18C0
2020
4010
4010
8208
8708
8208
4010
4010
2020
18C0
0700
ENDCHAR

STARTCHAR overlaycircle
ENCODING 173
SWIDTH 1000 0
DWIDTH 17 0
BBX 17 17 0 -4
BITMAP
03E000
0C1800
100400
200200
400100
400100
800080
800080
800080
800080
800080
400100
400100
200200
100400
0C1800
03E000
ENDCHAR

STARTCHAR circleop
ENCODING 174
SWIDTH 500 0
DWIDTH 8 0
BBX 6 6 1 0
BITMAP
30
48
84
84
48
30
ENDCHAR

STARTCHAR bullet
ENCODING 175
SWIDTH 500 0
DWIDTH 8 0
BBX 6 6 1 0
BITMAP
30
78
FC
FC
78
30
ENDCHAR

STARTCHAR hardyequiv
ENCODING 176
SWIDTH 1000 0
DWIDTH 17 0
BBX 10 7 4 2
BITMAP
8040
7380
1E00
0000
1E00
7380
8040
ENDCHAR

STARTCHAR equivalence
ENCODING 177
SWIDTH 1000 0
DWIDTH 17 0
BBX 10 7 4 2
BITMAP
FFC0
0000
0000
FFC0
0000
0000
FFC0
ENDCHAR

STARTCHAR reflexsubset
ENCODING 178
SWIDTH 1000 0
DWIDTH 17 0
BBX 11 14 3 -3
BITMAP
1FE0
6000
4000
8000
8000
8000
8000
8000
4000
6000
1FE0
0000
0000
FFE0
ENDCHAR

STARTCHAR reflexsuperset
ENCODING 179
SWIDTH 1000 0
DWIDTH 17 0
BBX 11 14 3 -3
BITMAP
FF00
00C0
0040
0020
0020
0020
0020
0020
0040
00C0
FF00
0000
0000
FFE0
ENDCHAR

STARTCHAR lessequal
ENCODING 180
SWIDTH 1000 0
DWIDTH 17 0
BBX 10 9 4 1
BITMAP
00C0
0700
3800
C000
3800
0700
00C0
0000
FFC0
ENDCHAR

STARTCHAR greaterequal
ENCODING 181
SWIDTH 1000 0
DWIDTH 17 0
BBX 10 9 4 1
BITMAP
C000
3800
0700
00C0
0700
3800
C000
0000
FFC0
ENDCHAR

STARTCHAR precedesequal
ENCODING 182
SWIDTH 1000 0
DWIDTH 17 0
BBX 10 11 4 0
BITMAP
0040
0080
0180
0E00
F000
0E00
0180
0080
0040
0000
FFC0
ENDCHAR

STARTCHAR followsequal
ENCODING 183
SWIDTH 1000 0
DWIDTH 17 0
BBX 10 11 4 0
BITMAP
8000
4000
6000
1C00
03C0
1C00
6000
4000
8000
0000
FFC0
ENDCHAR

STARTCHAR similar
ENCODING 184
SWIDTH 1000 0
DWIDTH 17 0
BBX 12 2 3 4
BITMAP
7C10
83E0
ENDCHAR

STARTCHAR approxequal
ENCODING 185
SWIDTH 1000 0
DWIDTH 17 0
BBX 12 5 3 3
BITMAP
7C10
83E0
0000
7C10
83E0
ENDCHAR

STARTCHAR propersubset
ENCODING 186
SWIDTH 1000 0
DWIDTH 17 0
BBX 11 11 3 0
BITMAP
1FE0
6000
4000
8000
8000
8000
8000
8000
4000
6000
1FE0
ENDCHAR

STARTCHAR propersuperset
ENCODING 187
SWIDTH 1000 0
DWIDTH 17 0
BBX 11 11 3 0
BITMAP
FF00
00C0
0040
0020
0020
0020
0020
0020
0040
00C0
FF00
ENDCHAR

STARTCHAR muchless
ENCODING 188
SWIDTH 1000 0
DWIDTH 17 0
BBX 17 11 0 0
BITMAP
003080
00C300
030C00
0C3000
30C000
C30000
30C000
0C3000
030C00
00C300
003080
ENDCHAR

STARTCHAR muchgreater
ENCODING 189
SWIDTH 1000 0
DWIDTH 17 0
BBX 17 11 0 0
BITMAP
860000
618000
186000
061800
018600
006180
018600
061800
186000
618000
860000
ENDCHAR

STARTCHAR precedes
ENCODING 190
SWIDTH 1000 0
DWIDTH 17 0
BBX 10 9 4 1
BITMAP
0040
0080
0180
0E00
F000
0E00
0180
0080
0040
ENDCHAR

STARTCHAR follows
ENCODING 191
SWIDTH 1000 0
DWIDTH 17 0
BBX 10 9 4 1
BITMAP
8000
4000
6000
1C00
03C0
1C00
6000
4000
8000
ENDCHAR
ENDFONT
